<?xml version="1.0" encoding="UTF-8"?>
<svg id="fish4BOTTOM_copy" data-name="fish4BOTTOM copy" xmlns="http://www.w3.org/2000/svg" xmlns:xlink="http://www.w3.org/1999/xlink" viewBox="0 0 426.17 338.42">
  <defs>
    <style>
      .cls-1 {
        clip-path: url(#clippath);
      }

      .cls-2 {
        stroke-width: 0px;
      }

      .cls-2, .cls-3, .cls-4, .cls-5, .cls-6, .cls-7, .cls-8, .cls-9, .cls-10 {
        fill: none;
      }

      .cls-11 {
        clip-path: url(#clippath-1);
      }

      .cls-3 {
        stroke-width: .38px;
      }

      .cls-3, .cls-12, .cls-4, .cls-5, .cls-6, .cls-7, .cls-8, .cls-9, .cls-10 {
        stroke: #570060;
      }

      .cls-3, .cls-12, .cls-4, .cls-5, .cls-7, .cls-8, .cls-9, .cls-10 {
        stroke-miterlimit: 10;
      }

      .cls-12 {
        fill: #ffebde;
      }

      .cls-5 {
        stroke-width: 1.13px;
      }

      .cls-6 {
        stroke-linecap: round;
        stroke-linejoin: round;
      }

      .cls-6, .cls-10 {
        stroke-width: .5px;
      }

      .cls-7 {
        stroke-width: .46px;
      }

      .cls-8 {
        stroke-width: 1.88px;
      }

      .cls-9 {
        stroke-width: .25px;
      }
    </style>
    <clipPath id="clippath">
      <path class="cls-2" d="M124.55,149.4c4.62,1.85,9.25,3.7,13.87,5.55-3.32,4.04-6.63,8.07-9.95,12.11,7.6-2.17,15.31,7.83,11.29,14.63,2.84,1.35,5.67,2.71,8.51,4.06-1.15,3.2-2.31,6.4-3.46,9.59,2.73-1.55,6.74.7,6.83,3.83,12.31,1.34,24.63,2.67,36.94,4.01,1.81.2,3.82.5,4.95,1.93s.25,4.22-1.55,3.96c5.73-.02,10.84,3.37,15.55,6.62,1.19.82,2.38,1.65,3.57,2.47,13.21.21,24.65-8.57,34.89-16.92,15.84-12.9,31.67-25.8,47.51-38.7-3.06-1.56-6.38-2.62-9.78-3.13,1.7-.72,3.17-1.98,4.15-3.55-4.27-.06-5.53-5-4.76-8.25-1.28-.1-2.52-.34-3.74-.74,5.89-14.09-10.38-7.42-18.66-7.46-15.36-.07-30.62-1.03-46-.55-15.33.48-30.63,1.61-45.86,3.41-7.43.87-14.84,1.91-22.22,3.09-4.61.74-17.94,5.68-22.07,4.03Z"/>
    </clipPath>
    <clipPath id="clippath-1">
      <path class="cls-2" d="M12.26,211.08l.69.59c.26,6.41,4.01,12.58,9.59,15.75,3.11,2.72,4.5,7,4.15,11.1-.42,4.97.89,9.9,3.64,14.07,3.09,4.69,5.55,10.77,10.83,11.53-.49,5.44.82,10.86,2.11,16.17,2.92,11.95,5.84,23.91,8.75,35.86.62,2.53,3.86,3.27,5.52,1.25l52.93-64.57-2.81-1.63,2.07-3.96-4.74-2.62c-.23-1.98.58-4.06,2.08-5.37-2.06-1.23-4.13-2.45-6.19-3.68-.92-.54-2.92-5.49-4.72-6.86-1.98-1.5-6.37-1.89-8.62-2.66-9.16-3.14-18.46-5.93-27.76-8.62-14.85-4.3-29.83-8.14-44.91-11.53-3.02-.68-4.94,3.14-2.6,5.17Z"/>
    </clipPath>
  </defs>
  <path class="cls-12" d="M414.08,44.33c-5.72,6.7-13.29,11.8-21.64,14.59-5.94,1.99-12.2,2.81-18.41,3.62-13.13,1.72-26.32,3.44-39.57,3.28-22.7-.27-45.31-6.19-65.23-17.06-15.48-8.45-29.38-19.83-45.65-26.63l5.97,9.37c-16.96-6.61-40.35-22.02-57.31-28.63,1.62,2,22.14,17.36,23.75,19.36-14.62-8.67-43.46-18.92-60.3-21.23,11.63,4.88,22.32,12.01,31.29,20.88l-53.13-14.69c12.23,6.35,23.76,14.03,34.34,22.85-15.25-6.9-32.32-9.69-48.97-8.02l42.66,21.54-53.97-1.88,33.39,15.65c-6.96,2.18-14.36-.56-21.44-2.35-7.07-1.79-15.65-2.19-20.53,3.24l30.26,11.07-30.51,3.81c8.08,3.33,16.31,6.3,24.66,8.89l-37.71-.93,21.27,14.51c-9.05-.59-18.16-.24-27.13,1.05,2.61,3.59,6.28,6.41,10.43,7.99-4.5.55-9.06.65-13.58.3l9.19,5.66c-24.54.26-19.97,15.05-18.82,28.45,1.91,22.27,16.95,44.82,29.19,63.52,8.78,13.4,16.77,27.32,23.91,41.66,2.27,4.54,4.48,9.26,4.92,14.32.58,6.73-2.03,13.26-4.26,19.63-6.46,18.38-10.17,37.72-10.97,57.19l11.54-4.15c.22,2.67,1.76,5.21,4.03,6.64,4.59-3.63,11.29-1.36,17.07-2.25,3.8-.58,7.23-2.57,10.54-4.51,43.03-25.25,87.35-51.65,116.4-92.2-10.09,17.94-22.39,34.64-36.53,49.6,1.55-1.77,3.93-3.72,5.98-2.56,2.05,1.16,78.69-85.89,86.89-95.06,26.03-29.16,43.07-48.44,64.17-87.49,11.33-20.96,32.59-35.03,54.31-45.45,1.68-.8,1.3-3.29-.54-3.54l-8.78-1.22,6.04-11.14c-1.82-.65-5.99.88-7.24,2.35Z"/>
  <path class="cls-5" d="M346.59,91.41c-1.62,10.47-12.08,18.51-22.66,18.21-3.83-.11-7.71-1.21-10.75-3.54-4.7-3.6-6.89-9.72-7.18-15.63-1.69-33.83,45.09-28.15,40.6.96Z"/>
  <path class="cls-8" d="M334.17,89.4c-.65,4.2-4.85,7.43-9.1,7.31-1.54-.04-3.1-.48-4.32-1.42-1.89-1.45-2.77-3.9-2.88-6.28-.68-13.59,18.11-11.3,16.3.39Z"/>
  <path class="cls-4" d="M12.26,211.08l.69.59c.26,6.41,4.01,12.58,9.59,15.75,3.11,2.72,4.5,7,4.15,11.1-.42,4.97.89,9.9,3.64,14.07,3.09,4.69,5.55,10.77,10.83,11.53-.49,5.44.82,10.86,2.11,16.17,2.92,11.95,5.84,23.91,8.75,35.86.62,2.53,3.86,3.27,5.52,1.25l52.93-64.57-2.81-1.63,2.07-3.96-4.74-2.62c-.23-1.98.58-4.06,2.08-5.37-2.06-1.23-4.13-2.45-6.19-3.68-.92-.54-2.92-5.49-4.72-6.86-1.98-1.5-6.37-1.89-8.62-2.66-9.16-3.14-18.46-5.93-27.76-8.62-14.85-4.3-29.83-8.14-44.91-11.53-3.02-.68-4.94,3.14-2.6,5.17Z"/>
  <path class="cls-3" d="M235.45,44.65c-9.83-4.08-19.66-8.17-29.49-12.25,5.55,7.11,11.09,14.22,16.64,21.33-13.9-6.7-27.54-13.92-40.9-21.64,6.66,6.39,12.86,13.25,18.54,20.53-14.12-4.46-27.68-10.68-40.28-18.48,10.24,5.87,19.24,13.9,26.23,23.42-16.17-2.07-32.04-6.52-46.93-13.16,11.99,5.88,22.94,13.88,32.18,23.52-12.15-3.97-24.29-7.94-36.44-11.91,11.62,5.97,22.32,13.72,31.62,22.88-15.78-4.76-32.28-7.15-48.76-7.06,14.13,3.17,27.37,10.25,37.86,20.24-12.74-3.42-25.48-6.84-38.22-10.26,6.81,4.66,13.62,9.32,20.44,13.98-10.67-2.65-21.69-3.88-32.68-3.65,9.64,3.97,18.84,9.04,27.35,15.06-9.19-3.09-18.91-4.58-28.61-4.38,6.31,3.44,12.62,6.89,18.94,10.33-10.16-3.55-21.28-4.28-31.82-2.09,4.64,1.55,9.28,3.1,13.92,4.66-12.98-.04-25.96,1.47-38.59,4.49,9.76,1.1,19.39,3.28,28.67,6.49-16.96-1.43-29.92-1.31-46,4.25,4.27,1.4,4.55,3.87,9.01,3.29-1.49,1.05-2.98,2.1-4.48,3.15,4.96-.62,9.92-1.24,14.88-1.86-6.46.63-12.78,2.73-18.33,6.11,3.45,1.82,7.56,2.37,11.37,1.54-3.04.81-6.08,1.61-9.12,2.42,5.58-.05,11.17-.09,16.75-.14-4.93,1.03-9.69,2.82-14.07,5.3,3.14.36,6.29.73,9.43,1.09l-7,3.13c3.56-1.45,7.38-2.26,11.22-2.39-2.92,1.55-5.84,3.1-8.76,4.65,4.55-.19,9.09-.38,13.64-.57-4.36,2.73-8.71,5.46-13.07,8.19,4.23-2.03,9.15-2.59,13.73-1.55-3.6,2.32-7.19,4.65-10.79,6.97,3.28-.09,6.56-.17,9.84-.26-1.6.94-3.19,1.87-4.79,2.81,3.49-1.1,7.28-1.24,10.83-.39-2.78,2.72-6.02,4.97-9.54,6.63,3.23-1.39,6.79-2.01,10.3-1.78-2.05,1.39-4.09,2.77-6.14,4.16,3.62-1.1,7.57-1.11,11.19,0-2.88,3.16-6.41,5.71-10.32,7.44,3.14-.62,6.28-1.24,9.42-1.86-1.4,1.83-3.31,3.27-5.46,4.11,2.93-1.62,6.3-2.41,9.65-2.26-1.61,2.76-3.98,5.07-6.78,6.6,3.79-.91,7.58-1.82,11.37-2.73-1.8,2.28-4.11,4.16-6.72,5.44,2.7-.8,5.4-1.59,8.1-2.39-1.03,2.54-3.07,4.65-5.57,5.76,3.07-.57,6.25-.56,9.32.04-1.01,2.46-3.04,4.47-5.51,5.47,2.26-.29,4.52-.58,6.78-.88-1.3,1.37-2.6,2.73-3.89,4.1,2.42.05,4.83.11,7.25.16-.92,3.26-3.34,6.06-6.43,7.44,3.68-1.45,7.7-2,11.64-1.61-.74,2.64-2.72,4.91-5.24,6,2.1-1.48,5.11-1.54,7.27-.15-5.16,4.53-11.67,7.51-18.47,8.46"/>
  <path class="cls-3" d="M104.55,263.46c11.13-5.2,22.05-10.83,32.75-16.87-9.12,6.08-17.85,12.75-26.12,19.96,7.71-6.1,16.98-10.21,26.68-11.81-8.2,6.55-16.39,13.1-24.59,19.65,8.27-3.78,16.53-7.56,24.8-11.33-11.11,9.09-22.23,18.17-33.34,27.26,8.98-6.01,18.6-11.05,28.66-15-9.11,7.25-18.23,14.51-27.34,21.76,9.36-4.9,18.73-9.79,28.09-14.69-7.73,7.76-16.26,14.73-25.39,20.77,8.57-5.26,17.51-9.94,26.71-13.99-8.45,8.04-17.43,15.52-26.86,22.39,9.89-6.74,19.96-13.58,31.37-17.2-10.47,8.65-20.94,17.3-31.42,25.95,7.47-4.33,14.94-8.66,22.4-12.99,5.93-3.44,12.02-6.94,18.78-8.09-12.7,10.32-25.39,20.63-38.09,30.95,12.22-7.11,24.44-14.22,36.66-21.32-8.08,6.63-16.17,13.25-24.25,19.88,11.52-7.16,23.13-14.16,34.83-21.01-3.53,5.22-7.95,9.83-13.03,13.56,6.32-4.06,17.35-13.68,24.39-16.3-2.77,4.83-19.44,16.86-24.22,19.71"/>
  <path class="cls-9" d="M323.62,143.34c-8.46,2.15-17.57,3.95-25.74.91-9.33-3.47-15.45-12.62-18.66-22.03-3.21-9.42-4.14-19.45-6.71-29.07-2.75-10.29-7.39-20.07-13.63-28.71,5.85,7.87,9.12,17.35,14.31,25.68,16.22,25.99,43.72,30.97,68.3,44.84-4.08,5.04-11.69,6.81-17.87,8.38Z"/>
  <path class="cls-10" d="M227.91,23.53c9.4,12.32,8.13,29.68,14.34,43.88,5.24,11.98,15.72,21.44,19.18,34.05,2.09,7.61,1.63,16.3,6.5,22.51,3.82,4.86,10.07,7.03,14.93,10.85,9.38,7.37,12.71,20.54,10.99,32.35-1.72,11.81-7.72,22.53-14.21,32.54,5.11-1.9,10.23-3.8,15.34-5.71-14.02,16.14-29.5,31-46.18,44.37"/>
  <g class="cls-1">
    <path class="cls-7" d="M293.35,140.04c-58.44,1.47-123.58-.51-172.48,11.35"/>
    <path class="cls-7" d="M293.2,144.48c-58.44,1.47-123.58-.51-172.48,11.35"/>
    <path class="cls-7" d="M298.54,148.41c-58.44,1.47-123.58-.51-172.48,11.35"/>
    <path class="cls-7" d="M297.11,150.61c-58.36,3.43-123.53,3.63-172,17.1"/>
    <path class="cls-7" d="M300.09,153.55c-58.25,4.98-123.39,6.92-171.48,21.69"/>
    <path class="cls-7" d="M301.86,156.46c-58.04,7-123.07,11.19-170.63,27.62"/>
    <path class="cls-7" d="M303.93,157.75c-57.77,8.97-122.62,15.38-169.59,33.42"/>
    <path class="cls-7" d="M290.24,134.11c-57.19,12.12-121.59,22.06-167.51,42.64"/>
    <path class="cls-7" d="M290.9,138.5c-57.19,12.12-121.59,22.06-167.51,42.64"/>
    <path class="cls-7" d="M296.86,141.39c-57.19,12.12-121.59,22.06-167.51,42.64"/>
    <path class="cls-7" d="M295.86,143.82c-56.75,14.02-120.79,26.11-165.99,48.21"/>
    <path class="cls-7" d="M299.33,146.16c-56.36,15.53-120.05,29.33-164.64,52.63"/>
    <path class="cls-7" d="M301.6,148.7c-55.79,17.48-118.96,33.47-162.72,58.3"/>
    <path class="cls-7" d="M303.87,149.59c-55.16,19.37-117.75,37.51-160.64,63.82"/>
    <path class="cls-7" d="M290.2,150.44c-51.67,27.34-110.87,54.58-149.38,86.97"/>
    <path class="cls-7" d="M292.04,154.48c-51.67,27.34-110.87,54.58-149.38,86.97"/>
    <path class="cls-7" d="M298.57,155.63c-51.67,27.34-110.87,54.58-149.38,86.97"/>
    <path class="cls-7" d="M298.27,158.24c-50.73,29.06-108.99,58.26-146.39,91.91"/>
    <path class="cls-7" d="M302.24,159.54c-49.93,30.4-107.39,61.15-143.88,95.79"/>
    <path class="cls-7" d="M305.13,161.36c-48.85,32.11-105.21,64.83-140.48,100.72"/>
    <path class="cls-7" d="M307.55,161.59c-47.73,33.76-102.94,68.38-136.96,105.45"/>
    <path class="cls-7" d="M288.74,138.86c-54.96,19.92-117.37,38.69-159.99,65.43"/>
    <path class="cls-7" d="M290.01,143.11c-54.96,19.92-117.37,38.69-159.99,65.43"/>
    <path class="cls-7" d="M296.31,145.15c-54.96,19.92-117.37,38.69-159.99,65.43"/>
    <path class="cls-7" d="M295.65,147.69c-54.26,21.75-116.01,42.59-157.71,70.74"/>
    <path class="cls-7" d="M299.41,149.53c-53.66,23.19-114.83,45.67-155.77,74.93"/>
    <path class="cls-7" d="M302.01,151.74c-52.83,25.03-113.18,49.63-153.08,80.28"/>
    <path class="cls-7" d="M304.39,152.3c-51.94,26.82-111.42,53.45-150.25,85.45"/>
  </g>
  <path class="cls-4" d="M124.55,149.4c4.62,1.85,9.25,3.7,13.87,5.55-3.32,4.04-6.63,8.07-9.95,12.11,7.6-2.17,15.31,7.83,11.29,14.63,2.84,1.35,5.67,2.71,8.51,4.06-1.15,3.2-2.31,6.4-3.46,9.59,2.73-1.55,6.74.7,6.83,3.83,12.31,1.34,24.63,2.67,36.94,4.01,1.81.2,3.82.5,4.95,1.93s.25,4.22-1.55,3.96c5.73-.02,10.84,3.37,15.55,6.62,1.19.82,2.38,1.65,3.57,2.47,13.21.21,24.65-8.57,34.89-16.92,15.84-12.9,31.67-25.8,47.51-38.7-3.06-1.56-6.38-2.62-9.78-3.13,1.7-.72,3.17-1.98,4.15-3.55-4.27-.06-5.53-5-4.76-8.25-1.28-.1-2.52-.34-3.74-.74,5.89-14.09-10.38-7.42-18.66-7.46-15.36-.07-30.62-1.03-46-.55-15.33.48-30.63,1.61-45.86,3.41-7.43.87-14.84,1.91-22.22,3.09-4.61.74-17.94,5.68-22.07,4.03Z"/>
  <g class="cls-11">
    <g>
      <path class="cls-6" d="M58.54,220.42c-11.93-4.43-24.29-9.18-39.71-8.86,2.92-.46,5.68.28,6.73,1.8-3.88.2-7.75.39-11.63.59,22.42.55,40.06,7.98,59.11,13.25,6.3,1.74,16.56,4.25,24.55,1.03-15.26-.37-27.03-3.35-39.04-7.81Z"/>
      <path class="cls-6" d="M55.62,226.75c-13.02-3.37-26.54-7.01-42.31-5.54,2.92-.66,5.87-.16,7.22,1.22-3.94.48-7.89.96-11.83,1.44,23.1-1.16,42.52,4.67,62.99,8.31,6.78,1.2,17.75,2.85,25.37-.85-15.73.79-28.33-1.19-41.43-4.58Z"/>
      <path class="cls-6" d="M53.29,232.08c-13.78-2.49-28.1-5.21-44.01-2.85,2.89-.81,5.98-.5,7.55.75-3.96.7-7.93,1.4-11.89,2.1,23.45-2.5,44.1,1.99,65.53,4.29,7.09.76,18.53,1.7,25.81-2.34-15.96,1.71-29.11.54-42.98-1.97Z"/>
      <path class="cls-6" d="M50.98,237.84c-14.5-1.49-29.58-3.17-45.5.18,2.83-.98,6.04-.89,7.85.23-3.95.94-7.9,1.88-11.85,2.82,23.62-3.98,45.46-1.01,67.76-.21,7.38.26,19.24.41,26.06-3.98-16.08,2.71-29.72,2.46-44.31.96Z"/>
      <path class="cls-6" d="M50.88,243.98c-15.15-.33-30.93-.79-46.68,3.64,2.73-1.16,6.05-1.31,8.09-.38-3.89,1.21-7.77,2.41-11.66,3.62,23.53-5.63,46.49-4.44,69.52-5.37,7.62-.31,19.82-1.07,26.04-5.81-16.02,3.83-30.07,4.63-45.31,4.3Z"/>
      <path class="cls-6" d="M50.62,248.85c-15.53.62-31.74,1.14-47.2,6.41,2.62-1.29,5.99-1.64,8.22-.87-3.8,1.41-7.6,2.82-11.4,4.23,23.25-6.9,46.89-7.17,70.3-9.49,7.75-.77,20.11-2.26,25.78-7.24-15.82,4.7-30.08,6.34-45.71,6.96Z"/>
      <path class="cls-6" d="M51.91,255.07c-15.89,2.17-32.5,4.32-47.2,10.88,2.4-1.49,5.79-2.17,8.28-1.66-3.59,1.72-7.17,3.44-10.76,5.16,22.35-8.9,46.7-11.56,70.32-16.15,7.82-1.52,20.23-4.19,24.89-9.47-15.22,6.06-29.54,9.07-45.53,11.25Z"/>
      <path class="cls-6" d="M54.43,258.89c-15.94,2.96-32.61,5.95-46.78,13.12,2.26-1.57,5.64-2.42,8.24-2.06-3.44,1.87-6.88,3.73-10.32,5.6,21.68-9.86,46.18-13.76,69.7-19.49,7.78-1.9,20.1-5.17,24.2-10.56-14.76,6.72-28.99,10.41-45.03,13.39Z"/>
      <path class="cls-6" d="M58.31,264.91c-15.64,4.78-32.04,9.67-44.61,18.13,1.88-1.75,5.13-2.96,7.93-2.96-3.01,2.17-6.02,4.34-9.04,6.51,19.55-11.91,43.79-18.65,66.47-26.96,7.51-2.75,19.31-7.35,21.95-12.88-13.3,8.11-26.96,13.35-42.71,18.16Z"/>
      <path class="cls-6" d="M63.16,270.4c-14.87,6.32-30.5,12.83-41.16,22.22,1.46-1.86,4.49-3.37,7.39-3.7-2.52,2.38-5.03,4.77-7.55,7.15,16.93-13.44,40.17-22.61,61.35-33.07,7.01-3.46,17.95-9.16,19.15-14.63-11.52,9.15-24.22,15.67-39.18,22.03Z"/>
      <path class="cls-6" d="M66.95,274.6c-14.27,7.07-29.27,14.38-38.76,24.16,1.21-1.89,4.08-3.55,7-4.06-2.22,2.47-4.43,4.94-6.65,7.4,15.3-14.1,37.7-24.47,57.79-35.95,6.65-3.8,16.99-10.02,17.39-15.39-10.41,9.6-22.42,16.72-36.77,23.84Z"/>
      <path class="cls-6" d="M74.95,278.04c-12.69,8.38-26.08,17.07-33.01,27.34.69-1.91,3.17-3.82,6.05-4.66-1.56,2.57-3.13,5.14-4.69,7.71,11.67-15.02,31.81-27.49,49.24-40.7,5.77-4.37,14.64-11.45,13.46-16.49-7.94,10.23-18.27,18.36-31.04,26.79Z"/>
      <path class="cls-6" d="M80.2,281.29c-11.21,9.17-24.22,18.14-29.83,28.53.44-1.89,2.7-3.89,5.52-4.89-1.23,2.59-2.46,5.18-3.69,7.77,9.78-15.28,57.83-54.47,55.9-59.28-6.66,10.4-10.73,13.83-27.9,27.88Z"/>
    </g>
  </g>
</svg>